<?xml version="1.0" encoding="iso-8859-1"?>
<!-- Generator: Adobe Illustrator 19.0.0, SVG Export Plug-In . SVG Version: 6.00 Build 0)  -->
<svg version="1.1" id="Capa_1" xmlns="http://www.w3.org/2000/svg" xmlns:xlink="http://www.w3.org/1999/xlink" x="0px" y="0px"
	 viewBox="0 0 512 512" style="enable-background:new 0 0 512 512;" xml:space="preserve">
<g>
	<g>
		<path d="M492.274,224.286C415.932,249.628,336.438,262.478,256,262.478c-29.648,0-59.168-1.752-88.449-5.225
			c2.567-2.658,4.712-5.611,6.423-8.869c2.807-5.354,4.212-11.335,4.212-17.956c0-4.786-0.737-9.328-2.211-13.626
			c-1.474-4.294-3.511-8.133-6.107-11.513c-2.599-3.38-5.686-6.196-9.266-8.45c-3.58-2.251-7.548-3.73-11.898-4.436
			c3.928-0.703,7.545-2.113,10.845-4.225c3.297-2.112,6.139-4.716,8.528-7.816c2.385-3.096,4.281-6.549,5.686-10.351
			c1.402-3.803,2.106-7.816,2.106-12.042c0-5.631-1.264-10.737-3.79-15.316c-2.527-4.575-6.038-8.483-10.529-11.724
			c-4.495-3.238-9.97-5.737-16.426-7.5c-6.459-1.759-13.549-2.641-21.268-2.641c-5.758,0-11.371,0.459-16.846,1.373
			c-5.475,0.918-10.634,2.218-15.478,3.908c-4.844,1.69-9.196,3.697-13.056,6.021c-3.863,2.324-7.055,4.895-9.582,7.711
			l25.27,29.786c3.228-4.928,6.982-8.625,11.266-11.091c4.281-2.462,8.877-3.697,13.793-3.697c4.35,0,7.719,0.95,10.108,2.852
			c2.385,1.901,3.58,4.542,3.58,7.922c0,4.509-2.037,8.064-6.107,10.668c-4.073,2.608-9.476,3.908-16.215,3.908h-7.37v27.885h6.528
			c9.545,0,16.425,1.162,20.637,3.486c4.211,2.324,6.317,6.163,6.317,11.513c0,4.789-1.651,8.275-4.949,10.457
			c-3.3,2.185-8.528,3.274-15.688,3.274c-5.896,0-11.128-0.739-15.688-2.218c-4.563-1.479-8.88-3.836-12.951-7.077l-9.506,13.567
			c-19.574-4.789-38.984-10.373-58.195-16.75L0,217.738v161.61l10.274,3.411C89.67,409.114,172.344,422.478,256,422.478
			s166.33-13.363,245.726-39.719L512,379.348v-161.61L492.274,224.286z M482,357.615c-73.188,23.137-149.166,34.862-226,34.862
			s-152.813-11.726-226-34.862v-98.596c73.326,22.211,149.248,33.458,226,33.458s152.674-11.248,226-33.458V357.615z"/>
	</g>
</g>
<g>
	<g>
		<path d="M301.163,172.227c-2.668-5.984-6.353-11.196-11.055-15.633c-4.705-4.436-10.249-7.885-16.636-10.351
			c-6.39-2.463-13.372-3.697-20.953-3.697c-9.828,0-17.409,2.396-22.743,7.183c0.28-7.605,2.422-13.484,6.423-17.64
			c4.001-4.153,9.44-6.232,16.32-6.232c9.825,0,18.531,3.802,26.112,11.407l22.111-25.773c-13.477-13.52-29.343-20.28-47.591-20.28
			c-9.407,0-17.83,1.832-25.27,5.492c-7.442,3.664-13.76,8.909-18.952,15.738c-5.195,6.833-9.16,15.141-11.897,24.927
			c-2.737,9.79-4.107,20.881-4.107,33.272c0,23.38,4.876,41.547,14.635,54.502c9.756,12.963,23.618,19.439,41.59,19.439
			c8.003,0,15.406-1.373,22.216-4.12c6.808-2.746,12.74-6.476,17.794-11.196c5.054-4.717,8.982-10.279,11.792-16.689
			c2.807-6.407,4.212-13.342,4.212-20.808C305.164,184.727,303.828,178.215,301.163,172.227z M265.574,199.057
			c-0.984,2.323-2.284,4.367-3.896,6.126c-1.615,1.762-3.511,3.169-5.686,4.225c-2.178,1.057-4.459,1.585-6.844,1.585
			c-2.388,0-4.669-0.528-6.844-1.585c-2.178-1.056-4.073-2.462-5.686-4.225c-1.616-1.76-2.915-3.803-3.896-6.126
			c-0.984-2.324-1.474-4.753-1.474-7.288c0.003-4.929,1.756-9.118,5.267-12.57c3.507-3.449,7.719-5.176,12.634-5.176
			c4.912,0,9.124,1.727,12.635,5.176c3.508,3.453,5.264,7.641,5.264,12.57C267.048,194.304,266.554,196.733,265.574,199.057z"/>
	</g>
</g>
<g>
	<g>
		<path d="M428.982,154.905c-2.81-7.816-6.705-14.577-11.687-20.28c-4.985-5.704-10.881-10.173-17.689-13.414
			c-6.811-3.238-14.214-4.859-22.216-4.859s-15.409,1.621-22.216,4.859c-6.811,3.241-12.707,7.711-17.689,13.414
			c-4.984,5.704-8.88,12.464-11.687,20.28c-2.81,7.816-4.212,16.372-4.212,25.667c0,9.295,1.402,17.85,4.212,25.667
			c2.807,7.816,6.703,14.576,11.687,20.28c4.982,5.704,10.878,10.14,17.689,13.309c6.808,3.169,14.214,4.753,22.216,4.753
			s15.405-1.585,22.216-4.753c6.808-3.169,12.704-7.605,17.689-13.309c4.982-5.704,8.877-12.464,11.687-20.28
			c2.807-7.816,4.212-16.372,4.212-25.667C433.194,171.277,431.789,162.721,428.982,154.905z M388.445,200.324
			c-2.879,5.001-6.564,7.5-11.055,7.5c-4.774,0-8.601-2.499-11.477-7.5c-2.879-4.997-4.317-11.582-4.317-19.752
			c0.001-8.166,1.438-14.788,4.317-19.858c2.876-5.07,6.703-7.605,11.477-7.605c4.491,0,8.176,2.535,11.055,7.605
			c2.876,5.07,4.317,11.691,4.317,19.858C392.762,188.741,391.321,195.326,388.445,200.324z"/>
	</g>
</g>
<g>
	<g>
		<path d="M490.051,96.388c-4.633-4.575-10.67-6.866-18.11-6.866c-7.442,0-13.477,2.291-18.11,6.866
			c-4.632,4.578-6.949,10.318-6.949,17.217c0,7.747,2.316,14.049,6.949,18.907c4.633,4.859,10.667,7.288,18.11,7.288
			c7.439,0,13.477-2.357,18.11-7.077c4.633-4.716,6.949-11.091,6.949-19.118C497,106.706,494.684,100.966,490.051,96.388z
			 M476.574,119.414c-1.264,1.341-2.81,2.007-4.633,2.007c-1.826,0-3.405-0.634-4.738-1.901c-1.336-1.267-2-2.885-2-4.858
			c0-1.971,0.7-3.556,2.105-4.754c1.402-1.195,2.948-1.796,4.633-1.796c1.823,0,3.369,0.601,4.633,1.796
			c1.263,1.198,1.895,2.783,1.895,4.753C478.469,116.493,477.837,118.077,476.574,119.414z"/>
	</g>
</g>
<g>
	<g>
		<polygon points="196.796,316.822 187.207,349.373 177.477,316.822 163.057,316.822 181.537,366.522 192.876,366.522 
			211.146,316.822 		"/>
	</g>
</g>
<g>
	<g>
		<rect x="214.86" y="316.82" width="13.65" height="49.7"/>
	</g>
</g>
<g>
	<g>
		<polygon points="250.695,354.623 250.695,346.782 268.755,346.782 268.755,335.723 250.695,335.723 250.695,328.723 
			271.835,328.723 271.835,316.822 237.045,316.822 237.045,366.522 272.465,366.522 272.465,354.623 		"/>
	</g>
</g>
<g>
	<g>
		<polygon points="334.625,316.822 323.915,350.913 320.344,340.552 328.535,316.822 316.004,316.822 311.594,332.152 
			307.254,316.822 294.725,316.822 302.774,340.552 299.344,350.913 288.564,316.822 273.794,316.822 293.254,366.522 
			304.594,366.522 311.594,348.743 318.665,366.522 330.004,366.522 349.464,316.822 		"/>
	</g>
</g>
<g>
	<g>
		<polygon points="409,300.522 409,360.522 449,330.522 		"/>
	</g>
</g>
<g>
	<g>
		<polygon points="63,330.522 103,360.522 103,300.522 		"/>
	</g>
</g>
<g>
</g>
<g>
</g>
<g>
</g>
<g>
</g>
<g>
</g>
<g>
</g>
<g>
</g>
<g>
</g>
<g>
</g>
<g>
</g>
<g>
</g>
<g>
</g>
<g>
</g>
<g>
</g>
<g>
</g>
</svg>
